<svg width="161" height="18" viewBox="0 0 161 18" fill="none" xmlns="http://www.w3.org/2000/svg">
<path fill-rule="evenodd" clip-rule="evenodd" d="M9.46865 14.4186L15.3203 17.9406L13.7674 11.3026L18.9373 6.83631L12.1293 6.26032L9.46865 0L6.80796 6.26032L0 6.83631L5.16988 11.3026L3.61702 17.9406L9.46865 14.4186Z" fill="#EA9419"/>
<path fill-rule="evenodd" clip-rule="evenodd" d="M50.328 14.4186L56.1796 17.9406L54.6268 11.3026L59.7967 6.83631L52.9887 6.26032L50.328 0L47.6673 6.26032L40.8594 6.83631L46.0293 11.3026L44.4764 17.9406L50.328 14.4186Z" fill="#EA9419"/>
<path fill-rule="evenodd" clip-rule="evenodd" d="M29.9061 14.4186L35.7578 17.9406L34.2049 11.3026L39.3748 6.83631L32.5668 6.26032L29.9061 0L27.2455 6.26032L20.4375 6.83631L25.6074 11.3026L24.0545 17.9406L29.9061 14.4186Z" fill="#EA9419"/>
<path fill-rule="evenodd" clip-rule="evenodd" d="M70.7655 14.4186L76.6171 17.9406L75.0643 11.3026L80.2342 6.83631L73.4262 6.26032L70.7655 0L68.1048 6.26032L61.2969 6.83631L66.4668 11.3026L64.9139 17.9406L70.7655 14.4186Z" fill="#EA9419"/>
<path fill-rule="evenodd" clip-rule="evenodd" d="M91.203 14.4186L97.0546 17.9406L95.5018 11.3026L100.672 6.83631L93.8637 6.26032L91.203 0L88.5423 6.26032L81.7344 6.83631L86.9043 11.3026L85.3514 17.9406L91.203 14.4186Z" fill="#EA9419"/>
<path d="M108.56 11.746V10.78L113.474 3.976H115V10.64H116.4V11.746H115V14H113.74V11.746H108.56ZM113.796 5.306L110.03 10.64H113.796V5.306ZM118.289 14.084C118.046 14.084 117.841 14 117.673 13.832C117.505 13.664 117.421 13.4587 117.421 13.216C117.421 12.9733 117.505 12.768 117.673 12.6C117.841 12.432 118.046 12.348 118.289 12.348C118.522 12.348 118.718 12.432 118.877 12.6C119.045 12.768 119.129 12.9733 119.129 13.216C119.129 13.4587 119.045 13.664 118.877 13.832C118.718 14 118.522 14.084 118.289 14.084ZM122.46 8.736C121.937 8.53067 121.536 8.232 121.256 7.84C120.976 7.448 120.836 6.972 120.836 6.412C120.836 5.908 120.962 5.45533 121.214 5.054C121.466 4.64333 121.839 4.32133 122.334 4.088C122.838 3.84533 123.445 3.724 124.154 3.724C124.863 3.724 125.465 3.84533 125.96 4.088C126.464 4.32133 126.842 4.64333 127.094 5.054C127.355 5.45533 127.486 5.908 127.486 6.412C127.486 6.95333 127.341 7.42933 127.052 7.84C126.763 8.24133 126.366 8.54 125.862 8.736C126.441 8.91333 126.898 9.226 127.234 9.674C127.579 10.1127 127.752 10.6447 127.752 11.27C127.752 11.8767 127.603 12.4087 127.304 12.866C127.005 13.314 126.581 13.664 126.03 13.916C125.489 14.1587 124.863 14.28 124.154 14.28C123.445 14.28 122.819 14.1587 122.278 13.916C121.746 13.664 121.331 13.314 121.032 12.866C120.733 12.4087 120.584 11.8767 120.584 11.27C120.584 10.6447 120.752 10.108 121.088 9.66C121.424 9.212 121.881 8.904 122.46 8.736ZM126.254 6.566C126.254 5.99667 126.067 5.558 125.694 5.25C125.321 4.942 124.807 4.788 124.154 4.788C123.51 4.788 123.001 4.942 122.628 5.25C122.255 5.558 122.068 6.00133 122.068 6.58C122.068 7.10267 122.259 7.52267 122.642 7.84C123.034 8.15733 123.538 8.316 124.154 8.316C124.779 8.316 125.283 8.15733 125.666 7.84C126.058 7.51333 126.254 7.08867 126.254 6.566ZM124.154 9.296C123.463 9.296 122.899 9.45933 122.46 9.786C122.021 10.1033 121.802 10.584 121.802 11.228C121.802 11.8253 122.012 12.306 122.432 12.67C122.861 13.034 123.435 13.216 124.154 13.216C124.873 13.216 125.442 13.034 125.862 12.67C126.282 12.306 126.492 11.8253 126.492 11.228C126.492 10.6027 126.277 10.1267 125.848 9.8C125.419 9.464 124.854 9.296 124.154 9.296Z" fill="#0B0B10"/>
<path d="M136.663 16.604C135.767 15.7267 135.067 14.6113 134.563 13.258C134.068 11.9047 133.821 10.444 133.821 8.876C133.821 7.27067 134.082 5.77267 134.605 4.382C135.137 2.982 135.893 1.82933 136.873 0.924H138.203V1.05C137.157 2.03 136.369 3.21067 135.837 4.592C135.314 5.964 135.053 7.392 135.053 8.876C135.053 10.3227 135.3 11.704 135.795 13.02C136.299 14.336 137.031 15.4887 137.993 16.478V16.604H136.663ZM145.764 4.872L141.872 14H140.584L144.532 4.998H139.128V3.906H145.764V4.872ZM147.149 6.426C147.214 5.56733 147.545 4.89533 148.143 4.41C148.74 3.92467 149.515 3.682 150.467 3.682C151.101 3.682 151.647 3.79867 152.105 4.032C152.571 4.256 152.921 4.564 153.155 4.956C153.397 5.348 153.519 5.79133 153.519 6.286C153.519 6.86467 153.351 7.364 153.015 7.784C152.688 8.204 152.259 8.47467 151.727 8.596V8.666C152.333 8.81533 152.814 9.10933 153.169 9.548C153.523 9.98667 153.701 10.5607 153.701 11.27C153.701 11.802 153.579 12.2827 153.337 12.712C153.094 13.132 152.73 13.4633 152.245 13.706C151.759 13.9487 151.176 14.07 150.495 14.07C149.505 14.07 148.693 13.8133 148.059 13.3C147.424 12.7773 147.069 12.04 146.995 11.088H148.227C148.292 11.648 148.521 12.1053 148.913 12.46C149.305 12.8147 149.827 12.992 150.481 12.992C151.134 12.992 151.629 12.824 151.965 12.488C152.31 12.1427 152.483 11.6993 152.483 11.158C152.483 10.458 152.249 9.954 151.783 9.646C151.316 9.338 150.611 9.184 149.669 9.184H149.347V8.12H149.683C150.541 8.11067 151.19 7.97067 151.629 7.7C152.067 7.42 152.287 6.99067 152.287 6.412C152.287 5.91733 152.123 5.52067 151.797 5.222C151.479 4.92333 151.022 4.774 150.425 4.774C149.846 4.774 149.379 4.92333 149.025 5.222C148.67 5.52067 148.46 5.922 148.395 6.426H147.149ZM155.225 16.604V16.478C156.186 15.4887 156.914 14.336 157.409 13.02C157.913 11.704 158.165 10.3227 158.165 8.876C158.165 7.392 157.899 5.964 157.367 4.592C156.844 3.21067 156.06 2.03 155.015 1.05V0.924H156.345C157.325 1.82933 158.076 2.982 158.599 4.382C159.131 5.77267 159.397 7.27067 159.397 8.876C159.397 10.444 159.145 11.9047 158.641 13.258C158.146 14.6113 157.451 15.7267 156.555 16.604H155.225Z" fill="#757575"/>
</svg>
